<svg viewBox="0 0 131 132" fill="none" xmlns="http://www.w3.org/2000/svg">
<path d="M39.5996 44.9465L39.5522 44.5397L39.144 44.5061C33.7543 44.0621 29.5183 39.5465 29.5183 34.0419C29.5183 29.9569 31.851 26.4158 35.2593 24.6797L35.545 24.5342L35.532 24.2138C35.5229 23.9906 35.5183 23.7666 35.5183 23.5419C35.5183 18.154 36.8713 13.0397 40.5852 8.98238C44.3016 4.92229 50.4443 1.85269 60.1623 0.684861C60.4296 0.652734 60.698 0.635543 61.0089 0.616728L61.0605 0.613612C61.3557 0.5958 61.685 0.575924 62.0657 0.539686C62.5306 0.49543 63.1313 0.494718 63.6282 0.506413C63.8741 0.512199 64.0896 0.520883 64.2436 0.528114C64.3205 0.531728 64.3819 0.534971 64.4239 0.537296L64.4716 0.540024L64.4836 0.540742L64.4864 0.540916L64.487 0.540954L64.4871 0.540959L64.5027 0.541933H64.5183C104.223 0.541928 129.518 29.6238 129.518 65.5419C129.518 101.44 100.417 130.542 64.5183 130.542C32.6924 130.542 6.20786 107.668 0.609119 77.4638C1.23877 77.5156 1.87551 77.5419 2.51831 77.5419C8.61827 77.5419 14.1644 75.1667 18.2807 71.2916C22.0073 75.1451 27.2333 77.5419 33.0183 77.5419C38.905 77.5419 44.2127 75.0601 47.9509 71.0872C51.9325 75.0744 57.4376 77.5419 63.5183 77.5419C75.6686 77.5419 85.5183 67.6922 85.5183 55.5419C85.5183 49.9927 82.5599 44.5638 78.7938 40.5407C76.9061 38.5242 74.8001 36.8436 72.7292 35.6643C70.6657 34.4892 68.6004 33.7911 66.8021 33.7911C65.0293 33.7911 63.7037 34.2626 62.7114 35.09C61.728 35.9099 61.1215 37.0384 60.7043 38.2635C60.288 39.4856 60.0463 40.8479 59.822 42.1622C59.8097 42.2344 59.7974 42.3064 59.7852 42.3782C59.5718 43.6313 59.3673 44.8325 59.0404 45.8949C58.2001 48.6259 56.5522 51.2286 54.131 52.7611C51.7433 54.2724 48.541 54.7833 44.4676 53.2532C41.8241 51.3305 39.9969 48.356 39.5996 44.9465Z" fill="#373232" stroke="#373232"/>
<path d="M64.456 1.03999L64.4559 1.03998L64.4556 1.03997L64.4532 1.03982L64.4421 1.03915L64.3962 1.03653C64.3555 1.03427 64.2955 1.0311 64.2201 1.02756C64.0691 1.02047 63.8576 1.01195 63.6165 1.00627C63.1237 0.994678 62.5473 0.9961 62.1131 1.03744C61.724 1.07447 61.3881 1.09475 61.0939 1.11251L61.0894 1.11278C60.7543 1.13301 60.4868 1.14946 60.2219 1.18129C50.5782 2.3402 44.5639 5.37633 40.954 9.31998C37.3493 13.258 36.0183 18.2366 36.0183 23.5419C36.0183 23.7598 36.0228 23.977 36.0316 24.1934L36.0577 24.8342L35.4863 25.1252C32.239 26.7793 30.0183 30.1522 30.0183 34.0419C30.0183 39.2841 34.0526 43.585 39.1851 44.0078L40.0014 44.075L40.0962 44.8887C40.4741 48.1312 42.2021 50.9644 44.7072 52.809C48.6207 54.2614 51.6359 53.7487 53.8636 52.3386C56.1577 50.8866 57.7469 48.3987 58.5625 45.7479C58.8766 44.727 59.0764 43.563 59.2905 42.305L59.2992 42.2535C59.5502 40.7785 59.8237 39.1713 60.3528 37.7614C60.8682 36.3881 61.6614 35.1016 63.0062 34.2602C63.836 33.0256 64.7982 31.8618 65.821 30.7872L65.8902 30.7145L65.9725 30.657C71.0365 27.118 77.1995 25.0419 83.8444 25.0419C94.6735 25.0419 104.215 30.5536 109.817 38.9202H109.864L110.163 39.3414C117.629 49.8609 122.018 62.7186 122.018 76.5984C122.018 86.9398 119.582 96.7138 115.252 105.376C123.875 94.408 129.018 80.5761 129.018 65.5419C129.018 29.8804 103.928 1.04193 64.5183 1.04193H64.4871L64.456 1.03999ZM64.456 1.03999L64.456 1.03999L64.456 1.03999Z" fill="#ECECEC" stroke="#373232" stroke-width="2"/>
<path d="M50.1602 98.3084C48.8898 101.563 40.8847 102.607 37.041 102.722C42.9456 105.762 48.2875 102.385 50.2505 101.321C57.9235 106.319 64.8464 103.397 67.7608 100.797C73.6894 104.64 81.285 100.392 83.8996 97.2978C77.9181 103.106 70.5879 100.042 67.6705 97.7839C61.7011 103.994 53.5097 100.721 50.1602 98.3084Z" fill="#ECECEC"/>
<path d="M54 17C52.5 18.5 49.5 21 48.5 24.5C50 22 55 19 56 17.5C57 16 60 14.6667 62 14C59.6 13.2 55.5 15.5 54 17Z" fill="#373232"/>
</svg>
