<svg viewBox="0 0 539 132" fill="none" xmlns="http://www.w3.org/2000/svg">
<path d="M39.5996 44.9465L39.5522 44.5397L39.144 44.5061C33.7543 44.0621 29.5183 39.5465 29.5183 34.0419C29.5183 29.9569 31.851 26.4158 35.2593 24.6797L35.545 24.5342L35.532 24.2138C35.5229 23.9906 35.5183 23.7666 35.5183 23.5419C35.5183 18.154 36.8713 13.0397 40.5852 8.98238C44.3016 4.92229 50.4443 1.85269 60.1623 0.684861C60.4296 0.652734 60.698 0.635543 61.0089 0.616728L61.0605 0.613612C61.3557 0.5958 61.685 0.575924 62.0657 0.539686C62.5306 0.49543 63.1313 0.494718 63.6282 0.506413C63.8741 0.512199 64.0896 0.520883 64.2436 0.528114C64.3205 0.531728 64.3819 0.534971 64.4239 0.537296L64.4716 0.540024L64.4836 0.540742L64.4864 0.540916L64.487 0.540954L64.4871 0.540959L64.5027 0.541933H64.5183C104.223 0.541928 129.518 29.6238 129.518 65.5419C129.518 101.44 100.417 130.542 64.5183 130.542C32.6924 130.542 6.20786 107.668 0.609119 77.4638C1.23877 77.5156 1.87551 77.5419 2.51831 77.5419C8.61827 77.5419 14.1644 75.1667 18.2807 71.2916C22.0073 75.1451 27.2333 77.5419 33.0183 77.5419C38.905 77.5419 44.2127 75.0601 47.9509 71.0872C51.9325 75.0744 57.4376 77.5419 63.5183 77.5419C75.6686 77.5419 85.5183 67.6922 85.5183 55.5419C85.5183 49.9927 82.5599 44.5638 78.7938 40.5407C76.9061 38.5242 74.8001 36.8436 72.7292 35.6643C70.6657 34.4892 68.6004 33.7911 66.8021 33.7911C65.0293 33.7911 63.7037 34.2626 62.7114 35.09C61.728 35.9099 61.1215 37.0384 60.7043 38.2635C60.288 39.4856 60.0463 40.8479 59.822 42.1622C59.8097 42.2344 59.7974 42.3064 59.7852 42.3782C59.5718 43.6313 59.3673 44.8325 59.0404 45.8949C58.2001 48.6259 56.5522 51.2286 54.131 52.7611C51.7433 54.2724 48.541 54.7833 44.4676 53.2532C41.8241 51.3305 39.9969 48.356 39.5996 44.9465Z" fill="#373232" stroke="#373232"/>
<path d="M64.456 1.03999L64.4559 1.03998L64.4556 1.03997L64.4532 1.03982L64.4421 1.03915L64.3962 1.03653C64.3555 1.03427 64.2955 1.0311 64.2201 1.02756C64.0691 1.02047 63.8576 1.01195 63.6165 1.00627C63.1237 0.994678 62.5473 0.9961 62.1131 1.03744C61.724 1.07447 61.3881 1.09475 61.0939 1.11251L61.0894 1.11278C60.7543 1.13301 60.4868 1.14946 60.2219 1.18129C50.5782 2.3402 44.5639 5.37633 40.954 9.31998C37.3493 13.258 36.0183 18.2366 36.0183 23.5419C36.0183 23.7598 36.0228 23.977 36.0316 24.1934L36.0577 24.8342L35.4863 25.1252C32.239 26.7793 30.0183 30.1522 30.0183 34.0419C30.0183 39.2841 34.0526 43.585 39.1851 44.0078L40.0014 44.075L40.0962 44.8887C40.4741 48.1312 42.2021 50.9644 44.7072 52.809C48.6207 54.2614 51.6359 53.7487 53.8636 52.3386C56.1577 50.8866 57.7469 48.3987 58.5625 45.7479C58.8766 44.727 59.0764 43.563 59.2905 42.305L59.2992 42.2535C59.5502 40.7785 59.8237 39.1713 60.3528 37.7614C60.8682 36.3881 61.6614 35.1016 63.0062 34.2602C63.836 33.0256 64.7982 31.8618 65.821 30.7872L65.8902 30.7145L65.9725 30.657C71.0365 27.118 77.1995 25.0419 83.8444 25.0419C94.6735 25.0419 104.215 30.5536 109.817 38.9202H109.864L110.163 39.3414C117.629 49.8609 122.018 62.7186 122.018 76.5984C122.018 86.9398 119.582 96.7138 115.252 105.376C123.875 94.408 129.018 80.5761 129.018 65.5419C129.018 29.8804 103.928 1.04193 64.5183 1.04193H64.4871L64.456 1.03999ZM64.456 1.03999L64.456 1.03999L64.456 1.03999Z" fill="#ECECEC" stroke="#373232" stroke-width="2"/>
<path d="M50.1602 98.3084C48.8898 101.563 40.8847 102.607 37.041 102.722C42.9456 105.762 48.2875 102.385 50.2505 101.321C57.9235 106.319 64.8464 103.397 67.7608 100.797C73.6894 104.64 81.285 100.392 83.8996 97.2978C77.9181 103.106 70.5879 100.042 67.6705 97.7839C61.7011 103.994 53.5097 100.721 50.1602 98.3084Z" fill="#ECECEC"/>
<path d="M54 17C52.5 18.5 49.5 21 48.5 24.5C50 22 55 19 56 17.5C57 16 60 14.6667 62 14C59.6 13.2 55.5 15.5 54 17Z" fill="#373232"/>
<path d="M181.352 49.7891L170.609 91H161.283L146.781 35.3359H154.35L165.971 79.7207L177.543 35.3359H185.16L196.781 79.7207L208.354 35.3359H215.922L201.42 91H192.094L181.352 49.7891Z" fill="#373232"/>
<path d="M256.693 60.7266C253.861 61.8984 250.199 62.7936 245.707 63.4121C239.62 64.2585 235.046 65.6745 231.986 67.6602C228.926 69.6458 227.396 72.2012 227.396 75.3262C227.396 78.0931 228.292 80.1764 230.082 81.5762C231.872 82.9759 234.558 83.6758 238.139 83.6758C241.622 83.6758 244.91 82.7969 248.002 81.0391C251.094 79.2812 253.992 76.6608 256.693 73.1777V60.7266ZM220.072 49.4961C220.072 44.776 221.911 41.2279 225.59 38.8516C229.236 36.5078 234.721 35.3359 242.045 35.3359C249.369 35.3359 254.87 36.5892 258.549 39.0957C262.195 41.6348 264.018 45.4271 264.018 50.4727V91H256.693V81.918C253.992 84.9453 251.094 87.2077 248.002 88.7051C244.91 90.235 241.622 91 238.139 91C232.117 91 227.608 89.6979 224.613 87.0938C221.586 84.457 220.072 80.5345 220.072 75.3262C220.072 70.248 222.107 66.179 226.176 63.1191C230.212 60.0267 236.283 57.9596 244.389 56.918C252.592 55.8112 256.693 54.3138 256.693 52.4258V50.4727C256.693 47.8685 255.473 45.9154 253.031 44.6133C250.59 43.3112 246.928 42.6602 242.045 42.6602C237.162 42.6602 233.5 43.2298 231.059 44.3691C228.617 45.5085 227.396 47.2174 227.396 49.4961H220.072Z" fill="#373232"/>
<path d="M308.109 35.3359H315.775L297.807 91H289.945L271.977 35.3359H279.643L293.852 79.1836L308.109 35.3359Z" fill="#373232"/>
<path d="M327.299 64.3887C327.462 70.834 328.731 75.6029 331.107 78.6953C333.614 82.0156 337.634 83.6758 343.168 83.6758C348.702 83.6758 352.738 82.0156 355.277 78.6953C356.286 77.3607 357.1 75.7168 357.719 73.7637H365.336C364.392 77.9303 362.813 81.3483 360.6 84.0176C356.726 88.6725 350.915 91 343.168 91C335.453 91 329.659 88.6888 325.785 84.0664C321.911 79.4115 319.975 72.4453 319.975 63.168C319.975 53.8906 321.911 46.9408 325.785 42.3184C329.659 37.6634 335.453 35.3359 343.168 35.3359C350.915 35.3359 356.71 37.6634 360.551 42.3184C364.424 46.9408 366.361 53.8906 366.361 63.168V64.3887H327.299ZM358.646 57.0645C358.126 52.9954 357.003 49.8379 355.277 47.5918C352.738 44.304 348.702 42.6602 343.168 42.6602C337.634 42.6602 333.614 44.304 331.107 47.5918C329.35 49.8379 328.21 52.9954 327.689 57.0645H358.646Z" fill="#373232"/>
<path d="M378.275 35.3359V29.9648C378.275 21.8268 383.842 17.7578 394.975 17.7578V24.3496C388.725 24.3496 385.6 26.2214 385.6 29.9648V35.3359H393.51V42.6602H385.6V91H378.275V42.6602H371.439V35.3359H378.275Z" fill="#373232"/>
<path d="M408.695 17.7578V91H401.371V17.7578H408.695Z" fill="#373232"/>
<path d="M454.594 78.6953C457.1 75.4076 458.354 70.2318 458.354 63.168C458.354 56.0716 457.1 50.8796 454.594 47.5918C452.055 44.304 448.018 42.6602 442.484 42.6602C436.951 42.6602 432.93 44.304 430.424 47.5918C427.885 50.8796 426.615 56.0716 426.615 63.168C426.615 70.2318 427.885 75.4076 430.424 78.6953C432.93 82.0156 436.951 83.6758 442.484 83.6758C448.018 83.6758 452.055 82.0156 454.594 78.6953ZM425.102 84.0176C421.228 79.3952 419.291 72.4453 419.291 63.168C419.291 53.8906 421.228 46.9245 425.102 42.2695C428.975 37.6471 434.77 35.3359 442.484 35.3359C450.232 35.3359 456.042 37.6471 459.916 42.2695C463.757 46.9245 465.678 53.8906 465.678 63.168C465.678 72.4453 463.757 79.3952 459.916 84.0176C456.042 88.6725 450.232 91 442.484 91C434.77 91 428.975 88.6725 425.102 84.0176Z" fill="#373232"/>
<path d="M504.301 49.7891L493.559 91H484.232L469.73 35.3359H477.299L488.92 79.7207L500.492 35.3359H508.109L519.73 79.7207L531.303 35.3359H538.871L524.369 91H515.043L504.301 49.7891Z" fill="#373232"/>
</svg>
