<svg viewBox="0 0 393 74" fill="none" xmlns="http://www.w3.org/2000/svg">
<path d="M35.3516 32.7891L24.6094 74H15.2832L0.78125 18.3359H8.34961L19.9707 62.7207L31.543 18.3359H39.1602L50.7812 62.7207L62.3535 18.3359H69.9219L55.4199 74H46.0938L35.3516 32.7891Z" fill="#373232"/>
<path d="M110.693 43.7266C107.861 44.8984 104.199 45.7936 99.707 46.4121C93.6198 47.2585 89.0462 48.6745 85.9863 50.6602C82.9264 52.6458 81.3965 55.2012 81.3965 58.3262C81.3965 61.0931 82.2917 63.1764 84.082 64.5762C85.8724 65.9759 88.5579 66.6758 92.1387 66.6758C95.6217 66.6758 98.9095 65.7969 102.002 64.0391C105.094 62.2812 107.992 59.6608 110.693 56.1777V43.7266ZM74.0723 32.4961C74.0723 27.776 75.9115 24.2279 79.5898 21.8516C83.2357 19.5078 88.7207 18.3359 96.0449 18.3359C103.369 18.3359 108.87 19.5892 112.549 22.0957C116.195 24.6348 118.018 28.4271 118.018 33.4727V74H110.693V64.918C107.992 67.9453 105.094 70.2077 102.002 71.7051C98.9095 73.235 95.6217 74 92.1387 74C86.1165 74 81.6081 72.6979 78.6133 70.0938C75.5859 67.457 74.0723 63.5345 74.0723 58.3262C74.0723 53.248 76.1068 49.179 80.1758 46.1191C84.2122 43.0267 90.2832 40.9596 98.3887 39.918C106.592 38.8112 110.693 37.3138 110.693 35.4258V33.4727C110.693 30.8685 109.473 28.9154 107.031 27.6133C104.59 26.3112 100.928 25.6602 96.0449 25.6602C91.1621 25.6602 87.5 26.2298 85.0586 27.3691C82.6172 28.5085 81.3965 30.2174 81.3965 32.4961H74.0723Z" fill="#373232"/>
<path d="M162.109 18.3359H169.775L151.807 74H143.945L125.977 18.3359H133.643L147.852 62.1836L162.109 18.3359Z" fill="#373232"/>
<path d="M181.299 47.3887C181.462 53.834 182.731 58.6029 185.107 61.6953C187.614 65.0156 191.634 66.6758 197.168 66.6758C202.702 66.6758 206.738 65.0156 209.277 61.6953C210.286 60.3607 211.1 58.7168 211.719 56.7637H219.336C218.392 60.9303 216.813 64.3483 214.6 67.0176C210.726 71.6725 204.915 74 197.168 74C189.453 74 183.659 71.6888 179.785 67.0664C175.911 62.4115 173.975 55.4453 173.975 46.168C173.975 36.8906 175.911 29.9408 179.785 25.3184C183.659 20.6634 189.453 18.3359 197.168 18.3359C204.915 18.3359 210.71 20.6634 214.551 25.3184C218.424 29.9408 220.361 36.8906 220.361 46.168V47.3887H181.299ZM212.646 40.0645C212.126 35.9954 211.003 32.8379 209.277 30.5918C206.738 27.304 202.702 25.6602 197.168 25.6602C191.634 25.6602 187.614 27.304 185.107 30.5918C183.35 32.8379 182.21 35.9954 181.689 40.0645H212.646Z" fill="#373232"/>
<path d="M232.275 18.3359V12.9648C232.275 4.82682 237.842 0.757812 248.975 0.757812V7.34961C242.725 7.34961 239.6 9.22135 239.6 12.9648V18.3359H247.51V25.6602H239.6V74H232.275V25.6602H225.439V18.3359H232.275Z" fill="#373232"/>
<path d="M262.695 0.757812V74H255.371V0.757812H262.695Z" fill="#373232"/>
<path d="M308.594 61.6953C311.1 58.4076 312.354 53.2318 312.354 46.168C312.354 39.0716 311.1 33.8796 308.594 30.5918C306.055 27.304 302.018 25.6602 296.484 25.6602C290.951 25.6602 286.93 27.304 284.424 30.5918C281.885 33.8796 280.615 39.0716 280.615 46.168C280.615 53.2318 281.885 58.4076 284.424 61.6953C286.93 65.0156 290.951 66.6758 296.484 66.6758C302.018 66.6758 306.055 65.0156 308.594 61.6953ZM279.102 67.0176C275.228 62.3952 273.291 55.4453 273.291 46.168C273.291 36.8906 275.228 29.9245 279.102 25.2695C282.975 20.6471 288.77 18.3359 296.484 18.3359C304.232 18.3359 310.042 20.6471 313.916 25.2695C317.757 29.9245 319.678 36.8906 319.678 46.168C319.678 55.4453 317.757 62.3952 313.916 67.0176C310.042 71.6725 304.232 74 296.484 74C288.77 74 282.975 71.6725 279.102 67.0176Z" fill="#373232"/>
<path d="M358.301 32.7891L347.559 74H338.232L323.73 18.3359H331.299L342.92 62.7207L354.492 18.3359H362.109L373.73 62.7207L385.303 18.3359H392.871L378.369 74H369.043L358.301 32.7891Z" fill="#373232"/>
</svg>
