<svg viewBox="0 0 430 79" fill="none" xmlns="http://www.w3.org/2000/svg">
<path d="M52.6855 65.2998L63.0449 24.1113H72.2588L56.5703 78H49.0996L36.001 37.1602L23.251 78H15.7803L0.141602 24.1113H9.30566L19.9141 64.4531L32.4648 24.1113H39.8857L52.6855 65.2998Z" fill="#2C79E1"/>
<path d="M114.941 78C114.41 76.9375 113.979 75.0449 113.646 72.3223C109.363 76.7715 104.25 78.9961 98.3066 78.9961C92.9941 78.9961 88.6279 77.502 85.208 74.5137C81.8213 71.4922 80.1279 67.6738 80.1279 63.0586C80.1279 57.4473 82.2529 53.0977 86.5029 50.0098C90.7861 46.8887 96.7959 45.3281 104.532 45.3281H113.497V41.0947C113.497 37.874 112.534 35.3174 110.608 33.4248C108.683 31.499 105.844 30.5361 102.092 30.5361C98.8047 30.5361 96.0488 31.3662 93.8242 33.0264C91.5996 34.6865 90.4873 36.6953 90.4873 39.0527H81.2236C81.2236 36.3633 82.1699 33.7734 84.0625 31.2832C85.9883 28.7598 88.5781 26.7676 91.832 25.3066C95.1191 23.8457 98.7217 23.1152 102.64 23.1152C108.849 23.1152 113.713 24.6758 117.232 27.7969C120.752 30.8848 122.578 35.1514 122.711 40.5967V65.3994C122.711 70.3467 123.342 74.2812 124.604 77.2031V78H114.941ZM99.6514 70.9775C102.54 70.9775 105.279 70.2305 107.869 68.7363C110.459 67.2422 112.335 65.2998 113.497 62.9092V51.8525H106.275C94.9863 51.8525 89.3418 55.1562 89.3418 61.7637C89.3418 64.6523 90.3047 66.9102 92.2305 68.5371C94.1562 70.1641 96.6299 70.9775 99.6514 70.9775Z" fill="#2C79E1"/>
<path d="M154.138 65.499L167.485 24.1113H176.898L157.574 78H150.552L131.028 24.1113H140.441L154.138 65.499Z" fill="#2C79E1"/>
<path d="M207.429 78.9961C200.124 78.9961 194.181 76.6055 189.599 71.8242C185.017 67.0098 182.726 60.585 182.726 52.5498V50.8564C182.726 45.5107 183.738 40.7461 185.764 36.5625C187.822 32.3457 190.678 29.0586 194.33 26.7012C198.016 24.3105 202 23.1152 206.283 23.1152C213.289 23.1152 218.734 25.4229 222.619 30.0381C226.504 34.6533 228.446 41.2607 228.446 49.8604V53.6953H191.939C192.072 59.0078 193.616 63.3076 196.571 66.5947C199.56 69.8486 203.345 71.4756 207.927 71.4756C211.181 71.4756 213.937 70.8115 216.194 69.4834C218.452 68.1553 220.428 66.3955 222.121 64.2041L227.749 68.5869C223.233 75.5264 216.46 78.9961 207.429 78.9961ZM206.283 30.6855C202.564 30.6855 199.443 32.0469 196.92 34.7695C194.396 37.459 192.836 41.2441 192.238 46.125H219.232V45.4277C218.967 40.7461 217.705 37.127 215.447 34.5703C213.189 31.9805 210.135 30.6855 206.283 30.6855Z" fill="#2C79E1"/>
<path d="M277.234 13.752C274.379 13.5195 271.972 13.4033 270.013 13.4033C263.505 13.4033 260.251 15.9434 260.251 21.0234V24.1113H270.76V35.7656H260.251V78H243.417V35.7656H235.598V24.1113H243.417V20.625C243.45 14.1836 245.525 9.21973 249.643 5.7334C253.793 2.21387 259.72 0.454102 267.423 0.454102C272.901 0.454102 281.8 0.802734 294.118 1.5V78H277.234V13.752Z" fill="#E79043"/>
<path d="M302.236 50.5576C302.236 45.1787 303.282 40.3975 305.374 36.2139C307.466 31.9971 310.471 28.7598 314.389 26.502C318.307 24.2441 322.905 23.1152 328.185 23.1152C336.253 23.1152 342.611 25.6221 347.26 30.6357C351.908 35.6162 354.232 42.4062 354.232 51.0059V51.6035C354.232 60.0039 351.892 66.6777 347.21 71.625C342.562 76.5391 336.253 78.9961 328.284 78.9961C320.614 78.9961 314.455 76.7051 309.807 72.123C305.158 67.5078 302.651 61.2656 302.286 53.3965L302.236 50.5576ZM319.021 51.6035C319.021 56.584 319.801 60.2363 321.361 62.5605C322.922 64.8848 325.229 66.0469 328.284 66.0469C334.261 66.0469 337.315 61.4482 337.448 52.251V50.5576C337.448 40.8955 334.36 36.0645 328.185 36.0645C322.573 36.0645 319.535 40.2314 319.07 48.5654L319.021 51.6035Z" fill="#E79043"/>
<path d="M408.171 55.8867L413.6 24.1113H429.687L416.986 78H402.792L393.877 46.0254L384.912 78H370.718L358.018 24.1113H374.104L379.434 56.6338L388 24.1113H399.704L408.171 55.8867Z" fill="#E79043"/>
</svg>
